<?xml version="1.0" encoding="UTF-8"?><svg id="Layer_2" xmlns="http://www.w3.org/2000/svg" viewBox="0 0 22.34 22.34"><defs><style>.cls-1{fill:#fff;}</style></defs><g id="Capa_1"><g id="Group_11562"><path id="Path_35" class="cls-1" d="M17.22,6.52c-.77,0-1.4-.63-1.4-1.4s.63-1.4,1.4-1.4,1.4,.63,1.4,1.4h0c0,.77-.62,1.4-1.39,1.4,0,0,0,0-.01,0Z"/><path id="Path_36" class="cls-1" d="M11.17,7.45c2.06,0,3.72,1.67,3.72,3.72s-1.67,3.72-3.72,3.72-3.72-1.67-3.72-3.72c0-2.06,1.67-3.72,3.72-3.72m0-1.86c-3.08,0-5.59,2.5-5.59,5.58s2.5,5.59,5.59,5.59,5.58-2.5,5.58-5.58c0-3.08-2.5-5.58-5.58-5.59Z"/><path id="Path_34" class="cls-1" d="M15.82,1.86c2.57,0,4.65,2.09,4.65,4.65V15.82c0,2.57-2.09,4.65-4.65,4.65H6.52c-2.57,0-4.65-2.09-4.65-4.65V6.52c0-2.57,2.09-4.65,4.65-4.65H15.82m0-1.86H6.52C2.92,.01,.01,2.92,0,6.52V15.82c.01,3.59,2.92,6.51,6.52,6.52H15.82c3.59-.01,6.51-2.92,6.52-6.52V6.52c-.01-3.59-2.92-6.51-6.52-6.52Z"/></g></g></svg>