<?xml version="1.0" encoding="UTF-8"?><svg id="Layer_2" xmlns="http://www.w3.org/2000/svg" viewBox="0 0 51.55 88.13"><defs><style>.cls-1{fill:none;stroke:#17214b;stroke-linecap:round;stroke-linejoin:round;stroke-width:1.61px;}</style></defs><path class="cls-1" d="M49.72,86.58H1.82V25.8C1.82,12.76,12.4,2.18,25.44,2.18h.67c13.04,0,23.61,10.58,23.61,23.63v60.77Z"/><line class="cls-1" x1="29.13" y1="26.29" x2="49.72" y2="26.29"/><line class="cls-1" x1="1.82" y1="26.29" x2="22.47" y2="26.29"/><line class="cls-1" x1="25.77" y1="23.59" x2="25.77" y2="2.18"/><line class="cls-1" x1="27.83" y1="24.06" x2="42.8" y2="9.09"/><line class="cls-1" x1="23.57" y1="24.14" x2="8.64" y2="9.2"/><line class="cls-1" x1="12.4" y1="57.67" x2="12.4" y2="41.51"/><line class="cls-1" x1="39.15" y1="57.67" x2="39.15" y2="41.45"/><path class="cls-1" d="M18.67,81.77V35.74c0-3.93,3.18-7.11,7.11-7.11s7.11,3.18,7.11,7.11v46.03"/><polyline class="cls-1" points="7.2 86.58 7.2 65.06 8.04 57.67 18.67 57.67"/><polyline class="cls-1" points="44.35 86.58 44.35 65.06 43.51 57.67 32.88 57.67"/><line class="cls-1" x1="12.4" y1="44.13" x2="18.67" y2="44.13"/><line class="cls-1" x1="32.88" y1="44.13" x2="39.15" y2="44.13"/><path class="cls-1" d="M32.88,86.58v-4.81c0-3.93-3.18-7.11-7.11-7.11s-7.11,3.18-7.11,7.11v4.81"/><polyline class="cls-1" points="22.47 29.44 22.47 24.67 24.7 23.59 26.85 23.59 29.08 24.67 29.08 29.44"/></svg>