<?xml version="1.0" encoding="utf-8"?>
<!-- Generator: Adobe Illustrator 26.3.1, SVG Export Plug-In . SVG Version: 6.00 Build 0)  -->
<svg version="1.1" id="Layer_2_00000091706359624829764480000013925254570938687882_"
	 xmlns="http://www.w3.org/2000/svg" xmlns:xlink="http://www.w3.org/1999/xlink" x="0px" y="0px" viewBox="0 0 49.5 86"
	 style="enable-background:new 0 0 49.5 86;" xml:space="preserve">
<style type="text/css">
	.st0{fill:none;stroke:#17214A;stroke-width:1.61;stroke-linecap:round;stroke-linejoin:round;}
	.st1{fill:#17214A;}
	.st2{fill:none;stroke:#17214A;stroke-width:1.61;stroke-linejoin:round;}
</style>
<g id="Layer_1-2">
	<path class="st0" d="M48.7,85.2H0.8V24.4c0-13.1,10.6-23.6,23.6-23.6h0.7c13.1,0,23.6,10.6,23.6,23.6V85.2z"/>
	<line class="st0" x1="28.1" y1="24.9" x2="48.7" y2="24.9"/>
	<line class="st0" x1="0.8" y1="24.9" x2="21.5" y2="24.9"/>
	<line class="st0" x1="24.8" y1="22.2" x2="24.8" y2="0.8"/>
	<line class="st0" x1="26.8" y1="22.7" x2="41.8" y2="7.7"/>
	<line class="st0" x1="22.6" y1="22.8" x2="7.6" y2="7.8"/>
	<line class="st0" x1="11.4" y1="56.3" x2="11.4" y2="40.1"/>
	<line class="st0" x1="38.2" y1="56.3" x2="38.2" y2="40.1"/>
	<path class="st1" d="M17.7,80.4v-46c0-3.9,3.2-7.1,7.1-7.1s7.1,3.2,7.1,7.1v46C31.9,70.9,17.7,70.9,17.7,80.4"/>
	<polygon class="st1" points="17.7,85.2 17.7,56.3 7,56.3 6.2,63.7 6.2,85.2 	"/>
	<polygon class="st1" points="31.9,85.2 31.9,56.3 42.5,56.3 43.3,63.7 43.3,85.2 	"/>
	<rect x="31.9" y="42.8" class="st1" width="6.3" height="13.5"/>
	<rect x="11.4" y="42.8" class="st1" width="6.3" height="13.5"/>
	<path class="st2" d="M17.7,85.2v-4.8c0-3.9,3.2-7.1,7.1-7.1s7.1,3.2,7.1,7.1v4.8"/>
	<polyline class="st1" points="21.5,28.1 21.5,23.3 23.7,22.2 25.8,22.2 28.1,23.3 28.1,28.1 	"/>
</g>
<rect x="12" y="42.8" class="st1" width="26.2" height="30.9"/>
</svg>
