<?xml version="1.0" encoding="UTF-8"?><svg id="Layer_2" xmlns="http://www.w3.org/2000/svg" viewBox="0 0 18.82 18.82"><defs><style>.cls-1{fill:#fff;}</style></defs><g id="Capa_1"><path id="Icon_awesome-phone-alt" class="cls-1" d="M18.28,13.3l-4.12-1.76c-.36-.15-.78-.05-1.03,.25l-1.82,2.23c-2.86-1.35-5.16-3.65-6.51-6.52l2.23-1.82c.3-.25,.41-.67,.25-1.03L5.52,.53c-.17-.39-.6-.61-1.01-.51L.68,.9C.28,.99,0,1.35,0,1.76,0,11.18,7.63,18.82,17.05,18.82h0c.41,0,.77-.28,.86-.68l.88-3.82c.09-.42-.12-.84-.51-1.01h0Z"/></g></svg>