<?xml version="1.0" encoding="UTF-8"?><svg id="Layer_2" xmlns="http://www.w3.org/2000/svg" viewBox="0 0 17.79 20.48"><defs><style>.cls-1{fill:#fff;}</style></defs><g id="Capa_1"><path id="Icon_simple-tiktok" class="cls-1" d="M9.35,.02c1.12-.02,2.23,0,3.34-.02,.03,1.33,.57,2.6,1.49,3.56,1,.9,2.28,1.44,3.62,1.53v3.44c-1.24-.03-2.46-.31-3.58-.82-.48-.23-.94-.5-1.38-.8,0,2.49,0,4.98-.02,7.47-.07,1.21-.46,2.37-1.15,3.36-1.15,1.66-3.02,2.68-5.04,2.74-1.22,.06-2.43-.25-3.48-.88C1.38,18.55,.23,16.74,.02,14.72c-.02-.43-.03-.85,0-1.27,.35-3.53,3.5-6.11,7.03-5.76,.14,.01,.28,.03,.42,.06,.02,1.26-.03,2.53-.03,3.79-1.53-.54-3.2,.27-3.73,1.79h0c-.13,.46-.17,.93-.12,1.39,.23,1.46,1.51,2.51,2.99,2.45,.97-.03,1.86-.55,2.36-1.37,.19-.27,.31-.58,.35-.9,.09-1.53,.05-3.05,.06-4.57,0-3.44,0-6.87,.02-10.3h0Z"/></g></svg>