<?xml version="1.0" encoding="UTF-8"?><svg id="Layer_2" xmlns="http://www.w3.org/2000/svg" viewBox="0 0 29.79 17.65"><defs><style>.cls-1{fill:#fff;}</style></defs><g id="Capa_1"><path id="Icon_simple-tripadvisor" class="cls-1" d="M28.33,5.77c.31-1.08,.8-2.09,1.46-3h-4.98C21.83,.9,18.37-.06,14.86,0c-3.6-.08-7.14,.89-10.19,2.79H0c.65,.9,1.14,1.9,1.45,2.96-2.43,3.32-1.71,7.98,1.61,10.42,3.22,2.36,7.72,1.76,10.22-1.34l1.58,2.38,1.6-2.4c.72,.93,1.66,1.67,2.74,2.16,3.74,1.72,8.17,.09,9.89-3.66,.83-1.8,.91-3.85,.22-5.71-.24-.66-.58-1.28-1-1.84h.02Zm-3.94,10.02c-2.6,.97-5.51,0-7.02-2.32-.26-.38-.46-.78-.62-1.2-1.14-3.09,.44-6.52,3.53-7.66s6.52,.44,7.66,3.53c1.14,3.08-.44,6.51-3.52,7.65h-.02Zm-12-2.27c-1.85,2.72-5.55,3.43-8.27,1.58-2.72-1.85-3.43-5.55-1.58-8.27,1.85-2.72,5.55-3.43,8.27-1.58,1.64,1.11,2.61,2.96,2.61,4.94,0,.2-.03,.4-.06,.59-.09,.98-.42,1.93-.96,2.76v-.02ZM3.68,10.1c0,2.04,1.64,3.69,3.68,3.69,2.04,0,3.69-1.64,3.69-3.68,0-2.04-1.64-3.69-3.68-3.69h0c-2.03,0-3.68,1.65-3.69,3.68Zm14.95,0c0,2.03,1.65,3.68,3.68,3.68,2.03,0,3.68-1.65,3.68-3.68,0-2.03-1.65-3.68-3.68-3.68h0c-2.03,0-3.68,1.65-3.68,3.68h0ZM7.36,7.78c1.33,0,2.41,1.09,2.4,2.42,0,1.33-1.09,2.41-2.42,2.4-1.33,0-2.41-1.09-2.4-2.42,0-1.32,1.08-2.4,2.4-2.4h.02Zm14.93,0c1.33,0,2.41,1.09,2.4,2.42,0,1.33-1.09,2.41-2.42,2.4-1.33,0-2.41-1.09-2.4-2.42,0-1.32,1.08-2.4,2.4-2.4h.02ZM14.86,1.31c2.48-.04,4.95,.45,7.23,1.44-.81,.02-1.61,.17-2.36,.45-2.74,1.02-4.63,3.53-4.86,6.44-.28-3.84-3.45-6.84-7.3-6.92,2.29-.95,4.76-1.43,7.24-1.41h.06Z"/></g></svg>